<?xml version="1.0" encoding="UTF-8" standalone="no"?>
<!-- Created with Inkscape (http://www.inkscape.org/) -->

<svg
   xmlns:dc="http://purl.org/dc/elements/1.1/"
   xmlns:cc="http://creativecommons.org/ns#"
   xmlns:rdf="http://www.w3.org/1999/02/22-rdf-syntax-ns#"
   xmlns:svg="http://www.w3.org/2000/svg"
   xmlns="http://www.w3.org/2000/svg"
   xmlns:xlink="http://www.w3.org/1999/xlink"
   xmlns:sodipodi="http://sodipodi.sourceforge.net/DTD/sodipodi-0.dtd"
   xmlns:inkscape="http://www.inkscape.org/namespaces/inkscape"
   width="700"
   viewbox="0 0 700 185"
   height="185"
   id="svg2"
   version="1.1"
   inkscape:version="0.48.2 r9819"
   sodipodi:docname="context-name.svg">
  <defs
     id="defs4">
    <filter
       inkscape:collect="always"
       id="filter3928"
       color-interpolation-filters="sRGB">
      <feGaussianBlur
         inkscape:collect="always"
         stdDeviation="1.8545776"
         id="feGaussianBlur3930" />
    </filter>
    <filter
       inkscape:collect="always"
       id="filter3932"
       color-interpolation-filters="sRGB">
      <feGaussianBlur
         inkscape:collect="always"
         stdDeviation="3.7091552"
         id="feGaussianBlur3934" />
    </filter>
    <filter
       inkscape:collect="always"
       id="filter3936"
       x="-0.108"
       width="1.216"
       y="-0.108"
       height="1.216"
       color-interpolation-filters="sRGB">
      <feGaussianBlur
         inkscape:collect="always"
         stdDeviation="5.5637328"
         id="feGaussianBlur3938" />
    </filter>
    <clipPath
       clipPathUnits="userSpaceOnUse"
       id="clipPath3288">
      <path
         style="font-size:medium;font-style:normal;font-variant:normal;font-weight:normal;font-stretch:normal;text-indent:0;text-align:start;text-decoration:none;line-height:normal;letter-spacing:normal;word-spacing:normal;text-transform:none;direction:ltr;block-progression:tb;writing-mode:lr-tb;text-anchor:start;baseline-shift:baseline;color:#000000;fill:#ffffff;fill-opacity:1;stroke:none;stroke-width:8;marker:none;visibility:visible;display:inline;overflow:visible;enable-background:accumulate;font-family:Sans;-inkscape-font-specification:Sans"
         d="m 108.64064,43.82907 0,72 72,0 0,-72 -72,0 z m 14.1875,9.34375 21.1875,21.15625 21.15625,-21.15625 5.65625,5.65625 -21.1875,21.1875 21.1875,21.15625 -5.65625,5.65625 -21.15625,-21.1875 -21.1875,21.1875 -5.65625,-5.65625 21.15625,-21.15625 -21.15625,-21.1875 5.65625,-5.65625 z"
         id="path3290"
         inkscape:connector-curvature="0" />
    </clipPath>
  </defs>
  <sodipodi:namedview
     id="base"
     pagecolor="#ffffff"
     bordercolor="#666666"
     borderopacity="1.0"
     inkscape:pageopacity="0"
     inkscape:pageshadow="2"
     inkscape:zoom="1.4863109"
     inkscape:cx="254.88377"
     inkscape:cy="62.594135"
     inkscape:document-units="px"
     inkscape:current-layer="crosshair"
     showgrid="true"
     fit-margin-top="1"
     fit-margin-left="1"
     fit-margin-right="1"
     fit-margin-bottom="1"
     inkscape:window-width="1318"
     inkscape:window-height="629"
     inkscape:window-x="48"
     inkscape:window-y="48"
     inkscape:window-maximized="1">
    <inkscape:grid
       type="xygrid"
       id="grid2989"
       empspacing="8"
       visible="true"
       enabled="true"
       snapvisiblegridlinesonly="true"
       spacingx="8px"
       spacingy="8px" />
  </sodipodi:namedview>
  <metadata
     id="metadata7">
    <rdf:RDF>
      <cc:Work
         rdf:about="">
        <dc:format>image/svg+xml</dc:format>
        <dc:type
           rdf:resource="http://purl.org/dc/dcmitype/StillImage" />
        <dc:title />
      </cc:Work>
    </rdf:RDF>
  </metadata>
  <g
     inkscape:label="Layer 1"
     inkscape:groupmode="layer"
     id="layer1"
     transform="translate(-41.946228,-411.71033)">
    <use
       x="0"
       y="0"
       xlink:href="#crosshair"
       id="use3890"
       transform="matrix(0.77645713,0,0,0.77645713,186.88999,78.046887)"
       width="700"
       height="150"
       style="opacity:0.3;filter:url(#filter3928)" />
    <use
       x="0"
       y="0"
       xlink:href="#crosshair"
       id="use3912"
       transform="matrix(0.67145868,0,0,0.67145868,346.05921,119.14449)"
       width="700"
       height="150"
       style="opacity:0.2;filter:url(#filter3932)" />
    <use
       x="0"
       y="0"
       xlink:href="#crosshair"
       id="use3914"
       transform="matrix(0.52680139,0,0,0.52680139,492.32793,176.81281)"
       width="700"
       height="150"
       style="opacity:0.2;filter:url(#filter3936)" />
    <g
       id="crosshair"
       transform="translate(3.9542034,-3.7645848)">
      <g
         id="red"
         style="stroke:#c80000;stroke-opacity:1"
         transform="matrix(0.96592583,-0.25881905,0.25881905,0.96592583,-131.81578,64.051384)">
        <path
           sodipodi:type="arc"
           style="fill:none;stroke:#c80000;stroke-width:8;stroke-miterlimit:4;stroke-opacity:1;stroke-dasharray:none"
           id="inner-circle"
           sodipodi:cx="144"
           sodipodi:cy="80"
           sodipodi:rx="24"
           sodipodi:ry="24"
           d="m 168,80 c 0,13.254834 -10.74517,24 -24,24 -13.25483,0 -24,-10.745166 -24,-24 0,-13.254834 10.74517,-24 24,-24 13.25483,0 24,10.745166 24,24 z"
           transform="translate(33.351381,452.64584)"
           clip-path="url(#clipPath3288)" />
        <path
           sodipodi:type="arc"
           style="fill:none;stroke:#c80000;stroke-width:8;stroke-miterlimit:4;stroke-opacity:1;stroke-dasharray:none"
           id="outer-circle"
           sodipodi:cx="168"
           sodipodi:cy="232"
           sodipodi:rx="40"
           sodipodi:ry="40"
           d="m 208,232 c 0,22.09139 -17.90861,40 -40,40 -22.09139,0 -40,-17.90861 -40,-40 0,-22.09139 17.90861,-40 40,-40 22.09139,0 40,17.90861 40,40 z"
           transform="translate(9.351391,300.64583)" />
        <g
           id="sticks"
           style="stroke:#c80000;stroke-opacity:1">
          <path
             inkscape:connector-curvature="0"
             id="path3761"
             d="m 113.35139,532.64583 40,0"
             style="fill:none;stroke:#c80000;stroke-width:8;stroke-linecap:butt;stroke-linejoin:miter;stroke-miterlimit:4;stroke-opacity:1;stroke-dasharray:none"
             sodipodi:nodetypes="cc" />
          <path
             inkscape:connector-curvature="0"
             id="path3763"
             d="m 177.35139,508.64583 0,-40"
             style="fill:none;stroke:#c80000;stroke-width:8;stroke-linecap:butt;stroke-linejoin:miter;stroke-miterlimit:4;stroke-opacity:1;stroke-dasharray:none"
             sodipodi:nodetypes="cc" />
          <path
             inkscape:connector-curvature="0"
             id="path3765"
             d="m 201.35139,532.64583 40,0"
             style="fill:none;stroke:#c80000;stroke-width:8;stroke-linecap:butt;stroke-linejoin:miter;stroke-miterlimit:4;stroke-opacity:1;stroke-dasharray:none"
             sodipodi:nodetypes="cc" />
          <path
             inkscape:connector-curvature="0"
             id="path3767"
             d="m 177.35139,556.64583 0,40"
             style="fill:none;stroke:#c80000;stroke-width:8;stroke-linecap:butt;stroke-linejoin:miter;stroke-miterlimit:4;stroke-opacity:1;stroke-dasharray:none"
             sodipodi:nodetypes="cc" />
        </g>
      </g>
    </g>
  </g>
  <g
     inkscape:groupmode="layer"
     id="layer2"
     inkscape:label="Text"
     transform="translate(-8.5948478,42.786861)">
    <g
       style="font-size:144px;font-style:oblique;font-variant:normal;font-weight:normal;font-stretch:normal;text-align:start;line-height:125%;letter-spacing:0px;word-spacing:0px;writing-mode:lr-tb;text-anchor:start;fill:#000000;fill-opacity:1;stroke:none;font-family:OCR A Std;-inkscape-font-specification:OCR A Std Oblique"
       id="text2985"
       transform="translate(4.9247775,-1.00982)">
      <path
         d="m 64.206967,118 c 1.744662,0.024 3.455979,-0.52799 5.133957,-1.65598 1.677807,-1.12798 2.789673,-2.97596 3.335601,-5.54393 0.372974,-2.69396 -0.09879,-4.57793 -1.415294,-5.65193 -1.316679,-1.07397 -2.821665,-1.58996 -4.514963,-1.54797 l -23.471698,0 c -3.123532,0.10501 -5.317424,-0.21299 -6.581683,-0.95399 -1.264365,-0.74098 -2.297992,-2.53495 -3.100885,-5.381933 L 25.74515,72.352588 c -0.586837,-1.673929 -1.027504,-3.257907 -1.322003,-4.751939 -0.294579,-1.493931 -0.27786,-3.221908 0.05016,-5.183933 0.390912,-2.165917 0.995249,-4.061892 1.813012,-5.687929 0.817679,-1.625915 1.864617,-3.37789 3.140817,-5.25593 L 46.373359,26.417179 c 1.690514,-2.645874 3.212864,-4.337852 4.567053,-5.075939 1.354055,-0.737893 3.499161,-1.061887 6.435325,-0.971983 l 24.047691,0 c 1.744644,0.0241 3.455961,-0.527897 5.133956,-1.655981 1.67779,-1.127885 2.789656,-2.975859 3.335601,-5.543926 C 90.265942,10.475489 89.794178,8.5915141 88.477691,7.5174181 87.160995,6.4435432 85.656009,5.9275518 83.962729,5.9694424 l -24.479685,0 C 54.021979,5.9245563 49.364768,6.9865419 45.511395,9.1554024 41.6579,11.324481 38.110639,14.870431 34.8696,19.793264 L 16.924064,46.432921 c -1.920003,2.790033 -3.409063,5.381997 -4.467182,7.7759 -1.058177,2.394031 -1.85264,5.129993 -2.38339,8.207895 -0.4814327,2.781015 -0.5996873,5.390979 -0.3547639,7.829898 0.2448718,2.439014 0.7703539,4.868981 1.5764479,7.289907 l 8.52473,26.783659 c 1.418303,4.66494 3.63589,8.11489 6.652766,10.34986 3.016792,2.23498 7.194994,3.34496 12.53462,3.32996 z"
         id="path3014"
         inkscape:connector-curvature="0" />
      <path
         d="m 254.85439,55.504805 c 1.59227,-0.863926 3.10843,-1.29592 4.54848,-1.295984 l 4.60795,0 c 4.03274,-0.03893 6.44094,0.867053 7.2246,2.717966 0.7835,1.851036 0.80118,4.880993 0.0531,9.089882 l -6.07635,42.623451 c -0.42435,2.40598 -0.33302,4.54195 0.27399,6.40792 0.60686,1.86597 2.26932,2.84996 4.98737,2.95196 3.0221,-0.126 5.13887,-1.24198 6.35032,-3.34796 1.21127,-2.10597 1.9599,-4.44593 2.24589,-7.01991 l 6.22871,-43.487437 c 0.65942,-3.722894 0.96322,-7.112847 0.91139,-10.16987 -0.052,-3.056894 -1.31942,-5.906854 -3.80222,-8.549889 -1.71329,-1.784903 -3.47779,-3.074886 -5.29349,-3.869951 -1.81586,-0.794912 -4.02706,-1.184906 -6.63359,-1.169984 l -10.22387,0 c -2.2345,0.04808 -4.41912,0.528071 -6.55385,1.439982 -2.13486,0.912063 -4.20505,1.968049 -6.21057,3.167959 l -12.5269,7.343905 0.0508,-0.287996 0.27932,-1.58398 c 0.55074,-2.561898 0.57691,-4.853867 0.0785,-6.875913 -0.49847,-2.021897 -2.23611,-3.089882 -5.21293,-3.203957 -3.07957,0.111077 -5.21293,1.185062 -6.40009,3.221958 -1.18723,2.037045 -1.9588,4.371013 -2.31472,7.001911 l -10.20799,57.887252 c -0.51746,2.47497 -0.48753,4.65294 0.0898,6.53392 0.57727,1.88097 2.29266,2.87096 5.14619,2.96996 2.88839,-0.099 4.95294,-1.08898 6.19365,-2.96996 1.24066,-1.88098 2.03872,-4.05895 2.3942,-6.53392 l 7.08465,-40.17548 z"
         id="path3016"
         inkscape:connector-curvature="0" />
      <path
         d="m 352.38426,54.208821 23.18371,0 c 2.14401,0.09006 4.30182,-0.305932 6.47341,-1.187987 2.17142,-0.881924 3.58786,-2.789897 4.24933,-5.723924 0.39818,-2.870891 -0.27652,-4.760866 -2.02412,-5.66993 -1.74777,-0.908911 -3.83473,-1.322904 -6.2609,-1.241981 l -23.1837,0 2.48852,-14.111818 c 0.51737,-2.474877 0.48745,-4.652848 -0.0898,-6.533919 -0.57736,-1.880875 -2.29275,-2.87086 -5.1462,-2.969959 -2.88847,0.0991 -4.95302,1.089089 -6.19366,2.969965 -1.24073,1.881073 -2.03879,4.059042 -2.39418,6.533913 l -2.48852,14.111818 -4.46394,0 c -2.39773,-0.08092 -4.6307,0.333075 -6.69894,1.241988 -2.0683,0.909065 -3.40957,2.799038 -4.0238,5.669923 -0.37342,2.93403 0.37011,4.842003 2.23058,5.723927 1.86041,0.882053 3.87855,1.278047 6.05443,1.187984 l 4.46394,0 -6.62757,37.583516 c -0.77744,3.710976 -1.20547,7.124929 -1.28409,10.241873 -0.0787,3.11697 0.89509,6.13493 2.92136,9.05388 1.99209,2.61897 4.39547,4.43694 7.21013,5.45393 2.81457,1.01698 5.95683,1.50298 9.42677,1.45798 l 7.05591,0 c 3.67508,0.084 7.20509,-0.33599 10.59006,-1.25998 3.38482,-0.92399 6.60547,-2.85596 9.66196,-5.79593 1.45876,-1.43397 2.85193,-3.20995 4.17949,-5.32793 1.32739,-2.11796 2.19535,-4.18193 2.60389,-6.191921 0.29965,-1.988954 -0.1015,-3.626931 -1.20344,-4.913938 -1.10212,-1.286959 -2.64666,-1.952949 -4.63361,-1.997973 -1.75082,0.02703 -3.31885,0.549018 -4.70409,1.565981 -1.3854,1.017011 -2.45145,2.366992 -3.19815,4.049947 -1.15877,2.708984 -2.5463,4.418954 -4.16258,5.129934 -1.61643,0.711 -3.80036,1.017 -6.5518,0.91799 l -7.05591,0 c -4.53776,-0.024 -7.07339,-1.09198 -7.6069,-3.20396 -0.53361,-2.111957 -0.35047,-5.123914 0.54943,-9.035884 z"
         id="path3018"
         inkscape:connector-curvature="0" />
      <path
         d="m 475.30002,118 c 2.14402,0.09 4.30183,-0.306 6.47341,-1.18799 2.17142,-0.88199 3.58787,-2.78996 4.24933,-5.72392 0.39819,-2.87096 -0.27651,-4.76093 -2.02411,-5.66993 -1.74777,-0.90898 -3.83473,-1.32297 -6.2609,-1.24198 l -29.66362,0 c -2.28619,0.018 -4.13242,-0.16198 -5.5387,-0.54 -1.40637,-0.37798 -2.47974,-1.06197 -3.22011,-2.05197 l -2.79573,-3.74395 c -0.43193,-0.527976 -0.78177,-1.163968 -1.04953,-1.90798 -0.26784,-0.743968 -0.35298,-1.451957 -0.25544,-2.123969 l 0.81257,-4.60794 44.35143,0 c 3.9747,0.06903 6.71056,-0.644962 8.20762,-2.141972 1.49687,-1.496947 2.52993,-4.19091 3.09916,-8.081897 l 1.95526,-11.087857 c 0.76142,-3.773898 0.93958,-7.097853 0.53448,-9.971874 -0.40528,-2.8739 -1.92537,-5.549862 -4.56026,-8.027894 l -4.82874,-4.463943 c -2.17374,-2.099899 -4.29436,-3.47988 -6.36186,-4.139948 -2.06767,-0.659915 -4.73873,-0.95991 -8.01319,-0.899987 l -12.67184,0 c -2.66845,-0.110921 -5.14991,0.147075 -7.4444,0.773989 -2.29458,0.627068 -5.23962,2.289045 -8.83512,4.985937 l -5.63233,4.175946 c -3.22046,2.373035 -5.50117,4.827001 -6.84215,7.361904 -1.34104,2.535025 -2.2897,5.600983 -2.84596,9.197883 l -4.69771,26.639657 c -0.68602,3.617976 -0.70824,6.533935 -0.0666,8.747885 0.64155,2.21399 2.10159,4.48196 4.38011,6.80391 l 4.98978,5.18394 c 1.72958,1.79398 3.42099,2.88596 5.07423,3.27596 1.65317,0.38999 3.86963,0.54599 6.64939,0.46799 z M 440.19165,65.584675 c 0.35529,-1.946921 0.86581,-3.344901 1.53156,-4.193945 0.66566,-0.848931 1.48756,-1.562922 2.46569,-2.141974 l 5.36137,-3.455955 c 1.27377,-0.758929 2.49523,-1.220924 3.66436,-1.385985 1.16903,-0.164935 2.39265,-0.230933 3.67087,-0.197995 l 11.66385,0 c 1.11768,-0.02694 2.25979,0.06306 3.42634,0.269998 1.16641,0.207061 2.1307,0.693054 2.89286,1.45798 l 4.51536,4.607941 c 0.73855,0.864045 1.08914,1.836032 1.05177,2.915962 -0.0375,1.08004 -0.19302,2.268023 -0.46648,3.563954 l -1.47279,8.351893 -40.03149,0 z"
         id="path3020"
         inkscape:connector-curvature="0" />
      <path
         d="m 526.63031,104.32018 c -1.00559,0.98999 -1.93333,1.99798 -2.78323,3.02396 -0.84993,1.026 -1.40707,2.17798 -1.67141,3.45595 -0.30788,2.00098 0.0608,3.68696 1.10604,5.05794 1.0452,1.37098 2.55727,2.08497 4.53622,2.14197 2.08352,-0.111 4.00444,-0.93299 5.76278,-2.46597 1.75828,-1.53298 3.38053,-3.11096 4.86675,-4.73394 l 21.37672,-21.599719 13.75883,21.599719 c 0.91371,1.62299 1.97942,3.20096 3.19715,4.73394 1.21758,1.53298 2.8486,2.35497 4.89308,2.46597 1.99894,-0.057 3.76283,-0.77099 5.29166,-2.14197 1.52866,-1.37098 2.49196,-3.05696 2.8899,-5.05794 0.18627,-1.27797 0.0354,-2.42996 -0.45256,-3.45595 -0.48816,-1.02598 -1.06039,-2.03396 -1.71671,-3.02396 L 570.93618,79.264499 596.52229,54.208821 c 1.00547,-0.989923 1.93321,-1.997909 2.78322,-3.023961 0.84982,-1.025918 1.40696,-2.177902 1.67143,-3.455955 0.30881,-2.006904 -0.0556,-3.716881 -1.09336,-5.129937 -1.03791,-1.412906 -2.54574,-2.150894 -4.52351,-2.213969 -2.0847,0.117079 -4.00986,0.963069 -5.77548,2.537971 -1.7658,1.575052 -3.39228,3.177029 -4.87945,4.805935 L 563.32842,69.328627 549.5696,47.728905 c -0.91278,-1.628909 -1.97426,-3.230888 -3.18447,-4.805942 -1.21028,-1.574903 -2.83707,-2.42089 -4.88037,-2.537964 -2.00012,0.06308 -3.76824,0.801067 -5.30436,2.213971 -1.53618,1.413054 -2.50371,3.123031 -2.90259,5.129935 -0.1864,1.27805 -0.0356,2.430034 0.45255,3.455955 0.48803,1.026055 1.06027,2.034041 1.71672,3.023961 l 16.74934,25.055678 z"
         id="path3022"
         inkscape:connector-curvature="0" />
      <path
         d="m 663.72801,54.208821 23.18371,0 c 2.14401,0.09006 4.30182,-0.305932 6.47341,-1.187987 2.17142,-0.881924 3.58786,-2.789897 4.24933,-5.723924 0.39818,-2.870891 -0.27652,-4.760866 -2.02412,-5.66993 -1.74777,-0.908911 -3.83473,-1.322904 -6.2609,-1.241981 l -23.1837,0 2.48852,-14.111818 c 0.51737,-2.474877 0.48745,-4.652848 -0.0898,-6.533919 -0.57736,-1.880875 -2.29275,-2.87086 -5.1462,-2.969959 -2.88847,0.0991 -4.95302,1.089089 -6.19366,2.969965 -1.24073,1.881073 -2.03879,4.059042 -2.39418,6.533913 l -2.48852,14.111818 -4.46394,0 c -2.39773,-0.08092 -4.6307,0.333075 -6.69894,1.241988 -2.0683,0.909065 -3.40957,2.799038 -4.0238,5.669923 -0.37342,2.93403 0.37011,4.842003 2.23058,5.723927 1.86041,0.882053 3.87855,1.278047 6.05443,1.187984 l 4.46394,0 -6.62757,37.583516 c -0.77744,3.710976 -1.20547,7.124929 -1.28409,10.241873 -0.0787,3.11697 0.89509,6.13493 2.92136,9.05388 1.99209,2.61897 4.39547,4.43694 7.21013,5.45393 2.81457,1.01698 5.95683,1.50298 9.42677,1.45798 l 7.05591,0 c 3.67508,0.084 7.20509,-0.33599 10.59006,-1.25998 3.38482,-0.92399 6.60547,-2.85596 9.66196,-5.79593 1.45876,-1.43397 2.85193,-3.20995 4.17949,-5.32793 1.32739,-2.11796 2.19535,-4.18193 2.60389,-6.191921 0.29965,-1.988954 -0.1015,-3.626931 -1.20344,-4.913938 -1.10212,-1.286959 -2.64666,-1.952949 -4.63361,-1.997973 -1.75082,0.02703 -3.31885,0.549018 -4.70409,1.565981 -1.3854,1.017011 -2.45145,2.366992 -3.19815,4.049947 -1.15877,2.708984 -2.5463,4.418954 -4.16258,5.129934 -1.61643,0.711 -3.80036,1.017 -6.5518,0.91799 l -7.05591,0 c -4.53776,-0.024 -7.07339,-1.09198 -7.6069,-3.20396 -0.53361,-2.111957 -0.35047,-5.123914 0.54943,-9.035884 z"
         id="path3024"
         inkscape:connector-curvature="0" />
    </g>
  </g>
</svg>